<svg width="129" height="98" viewBox="0 0 129 98" fill="none" xmlns="http://www.w3.org/2000/svg">
<g opacity="0.5">
<path opacity="0.64" d="M64.1017 97.0793C98.0119 97.0793 125.502 95.5123 125.502 93.5793C125.502 91.6463 98.0119 90.0793 64.1017 90.0793C30.1914 90.0793 2.70166 91.6463 2.70166 93.5793C2.70166 95.5123 30.1914 97.0793 64.1017 97.0793Z" fill="#333333"/>
<path d="M114.502 27.0793L116.702 26.4793C116.702 26.4793 116.102 21.6793 117.402 20.6793C118.802 19.5793 123.402 19.1793 126.302 20.1793C129.202 21.1793 129.002 22.6793 128.802 25.4793C128.602 28.2793 125.902 28.8793 124.002 29.2793C122.102 29.6793 117.002 30.2793 115.802 30.2793C114.602 30.2793 114.502 27.0793 114.502 27.0793Z" fill="#95C8CF"/>
<path d="M14.4016 27.0794L12.2016 26.4794C12.2016 26.4794 12.8016 21.6794 11.5016 20.6794C10.2016 19.6794 5.5016 19.1794 2.6016 20.1794C-0.2984 21.1794 -0.0983999 22.6794 0.1016 25.4794C0.3016 28.3794 3.00162 28.8794 4.90162 29.2794C6.80162 29.6794 11.9016 30.2794 13.1016 30.2794C14.3016 30.2794 14.4016 27.0794 14.4016 27.0794Z" fill="#95C8CF"/>
<path d="M120.802 94.6793H112.702C110.802 94.6793 109.302 93.1793 109.302 91.2793V73.5793H125.402C125.502 79.0793 125.502 84.9793 125.002 90.7793C124.902 92.9793 123.102 94.6793 120.802 94.6793Z" fill="#1A1A1A"/>
<path d="M8.30168 94.6793H16.4017C18.3017 94.6793 19.8017 93.1793 19.8017 91.2793V73.5793H3.70167C3.60167 79.0793 3.60166 84.9793 4.10166 90.7793C4.20166 92.9793 6.10168 94.6793 8.30168 94.6793Z" fill="#1A1A1A"/>
<path d="M14.4016 24.7794C14.4016 24.7794 24.5016 2.77938 26.9016 1.27938C29.3016 -0.220618 100.502 -0.620618 102.402 1.27938C104.302 3.17938 114.202 24.7794 114.202 24.7794C114.202 24.7794 115.902 27.7794 116.702 30.8794C117.502 33.9794 123.002 40.7794 125.202 43.7794C127.302 46.7794 125.502 73.8794 125.302 76.3794C125.102 78.8794 122.002 82.0794 119.202 83.3794C117.202 84.2794 89.8016 85.7794 64.5016 85.7794C38.6016 85.7794 12.2016 84.3794 10.4016 83.4794C6.80162 81.7794 3.8016 78.4794 3.7016 76.6794C3.5016 73.6794 1.90162 46.2794 3.40162 44.1794C4.90162 42.1794 10.8016 35.1794 11.4016 33.4794C12.0016 32.0794 13.2016 27.3794 14.4016 24.7794Z" fill="url(#paint0_linear)"/>
<path d="M111.902 25.5793C78.5016 27.1793 48.1016 27.0793 16.5016 25.5793C19.7016 18.0793 22.7016 10.5793 27.7016 3.1793C52.2016 1.4793 76.5016 1.4793 100.702 3.1793C105.702 10.5793 111.902 25.5793 111.902 25.5793Z" fill="url(#paint1_linear)"/>
<path d="M111.902 25.5793C78.5016 27.1793 48.1016 27.0793 16.5016 25.5793C19.7016 18.0793 22.7016 10.5793 27.7016 3.1793C52.2016 1.4793 76.5016 1.4793 100.702 3.1793C105.702 10.5793 111.902 25.5793 111.902 25.5793Z" stroke="#1A1A1A" stroke-width="0.8457" stroke-miterlimit="10" stroke-linecap="round" stroke-linejoin="round"/>
<path d="M105.202 81.5794C78.0016 83.0794 50.9016 83.0794 23.7016 81.5794C22.8016 81.4794 22.4016 80.3794 23.1016 79.7794L30.2016 73.6794C31.4016 72.6794 32.9016 72.1794 34.5016 72.2794C54.2016 73.3794 74.2016 73.2794 94.4016 72.2794C96.0016 72.1794 97.5016 72.6794 98.7016 73.6794L105.802 79.7794C106.502 80.3794 106.102 81.4794 105.202 81.5794Z" fill="#333333"/>
<path d="M10.9016 77.6795V70.9795C10.9016 70.3795 11.4016 69.9795 11.9016 69.9795H20.6016C21.6016 69.9795 22.0016 71.1795 21.2016 71.7795L12.5016 78.4795C11.9016 78.9795 10.9016 78.5795 10.9016 77.6795Z" fill="#333333"/>
<path d="M118.002 77.6795V70.9795C118.002 70.3795 117.502 69.9795 117.002 69.9795H108.302C107.302 69.9795 106.902 71.1795 107.702 71.7795L116.402 78.4795C117.102 78.9795 118.002 78.5795 118.002 77.6795Z" fill="#333333"/>
<path d="M122.402 46.2793V48.0793C122.402 51.5793 119.702 54.5793 116.202 54.9793L115.302 46.9793C117.702 46.7793 120.102 46.5793 122.402 46.2793Z" fill="#333333"/>
<path d="M15.6017 47.0793L14.7017 55.0793C11.3017 54.5793 8.70166 51.6793 8.70166 48.1793V46.2793C11.0017 46.5793 13.3017 46.7793 15.6017 47.0793Z" fill="#333333"/>
<path d="M101.402 57.0794C81.1016 60.3794 75.9016 63.7794 65.6016 63.7794C55.7016 63.7794 47.5016 60.5794 29.6016 57.3794L31.6016 48.3794C54.4016 49.9794 77.1016 49.9794 99.9016 48.3794L101.402 57.0794Z" fill="#333333"/>
<path d="M111.902 25.5793L99.9016 48.3793" stroke="#1A1A1A" stroke-width="0.8454" stroke-miterlimit="10" stroke-linecap="round" stroke-linejoin="round"/>
<path d="M116.302 55.0794C110.602 55.6794 101.402 57.1794 97.1016 57.8794L99.9016 48.4794C105.102 48.0794 110.302 47.6794 115.402 47.1794L116.302 55.0794Z" fill="white" stroke="#1A1A1A" stroke-width="0.8454" stroke-miterlimit="10" stroke-linecap="round" stroke-linejoin="round"/>
<path d="M16.5016 25.5793L31.6016 48.3793" stroke="#1A1A1A" stroke-width="0.8454" stroke-miterlimit="10" stroke-linecap="round" stroke-linejoin="round"/>
<path d="M31.6017 48.3795L33.6017 58.0795C29.3017 57.2795 20.4017 55.7795 14.8017 55.0795C14.8017 55.0795 14.8017 55.0795 14.7017 55.0795L15.6017 46.9795C20.9017 47.5795 26.3017 48.0795 31.6017 48.3795Z" fill="white" stroke="#1A1A1A" stroke-width="0.8454" stroke-miterlimit="10" stroke-linecap="round" stroke-linejoin="round"/>
<path d="M115.402 47.0794C110.202 47.5794 105.002 48.0794 99.9017 48.3794C77.1017 49.9794 54.4017 49.9794 31.6017 48.3794C26.3017 47.9794 20.9017 47.5794 15.6017 46.9794C13.3017 46.7794 11.0017 46.4794 8.70166 46.1794V48.0794C8.70166 51.5794 11.3017 54.4794 14.7017 54.9794C14.7017 54.9794 14.7017 54.9794 14.8017 54.9794C20.4017 55.6794 25.3017 56.4794 29.6017 57.2794C47.4017 60.4794 55.6017 63.6794 65.6017 63.6794C75.9017 63.6794 81.1017 60.2794 101.402 56.9794C105.602 56.2794 110.602 55.5794 116.302 54.9794C119.802 54.5794 122.502 51.5794 122.502 48.0794V46.2794C120.102 46.5794 117.702 46.7794 115.402 47.0794Z" stroke="#1A1A1A" stroke-width="0.8454" stroke-miterlimit="10" stroke-linecap="round" stroke-linejoin="round"/>
</g>
<defs>
<linearGradient id="paint0_linear" x1="64.4609" y1="85.923" x2="64.4609" y2="0.0793801" gradientUnits="userSpaceOnUse">
<stop stop-color="#D4ECEF"/>
<stop offset="1" stop-color="#95C8CF"/>
</linearGradient>
<linearGradient id="paint1_linear" x1="64.1935" y1="26.7541" x2="64.1935" y2="1.8813" gradientUnits="userSpaceOnUse">
<stop stop-color="#4D4D4D"/>
<stop offset="1" stop-color="#333333"/>
</linearGradient>
</defs>
</svg>
