<svg width="172" height="35" viewBox="0 0 172 35" fill="none" xmlns="http://www.w3.org/2000/svg">
<path d="M169.234 26.6288C168.418 27.6834 164.428 32.8706 163.044 29.7119C161.381 25.9174 162.537 21.3559 163.551 19.8169C164.565 18.2779 165.346 14.771 162.735 14.771C162.045 14.7274 161.361 14.9212 160.798 15.32C160.235 15.7187 159.827 16.2981 159.642 16.9609C159.642 16.9609 158.501 13.8475 155.242 13.9333C151.982 14.0191 147.824 18.4141 146.684 22.5467C145.543 26.6793 145.954 29.1972 145.954 29.1972C145.602 29.6988 145.135 30.1085 144.59 30.3914C144.045 30.6743 143.44 30.822 142.826 30.822C140.712 30.822 137.153 28.8036 136.828 26.1999C141.959 22.3852 144.646 10.2195 144.646 6.08694C144.646 1.95434 142.532 0.0873515 140.25 0.00157104C137.969 -0.0842094 133.599 3.33692 132.078 11.7081C130.531 20.2508 131.738 24.3885 132.488 27.1132C132.488 27.1132 130.126 31.0087 127.272 31.0087C125.208 31.0087 121.73 28.5766 121.73 26.0586C126.293 22.4105 129.31 10.5728 129.31 6.67731C129.31 2.78187 128.007 0.0268021 124.666 0.0268021C121.325 0.0268021 118.222 5.67822 116.924 11.5466C115.91 16.0879 116.356 22.0118 117.005 26.6843C116.301 28.6573 114.617 30.7665 112.605 30.822C110.394 30.8775 109.918 23.7577 110.815 21.7394C111.748 19.6403 112.934 17.9448 113.015 17.4907C113.096 17.0366 112.929 14.7003 110.572 14.5994C109.294 14.5489 107.799 16.9508 107.799 16.9508C107.799 16.9508 106.278 14.004 103.479 14.004C100.681 14.004 96.3105 17.6824 95.2255 22.2793C94.1406 26.8761 94.5158 28.1729 94.5158 28.1729C94.0886 28.7046 93.5413 29.1285 92.9185 29.4099C92.2956 29.6914 91.6148 29.8225 90.9314 29.7926C88.432 29.7926 86.7793 27.7389 86.7793 27.2697C86.7793 26.8004 88.2445 22.9756 88.2445 19.8925C88.2445 16.8095 86.6171 14.6196 84.9035 14.6196C83.1899 14.6196 80.9136 16.7288 80.9136 21.0279C80.9136 25.327 82.4598 27.2697 82.4598 27.6784C82.4598 28.0871 80.5029 31.1096 78.911 31.1096C77.5979 31.1096 75.5498 30.0247 76.006 25.327C76.2494 22.804 77.3901 19.3425 76.7411 17.5109C76.0922 15.6792 72.4217 15.2705 71.6714 17.0517C70.921 18.8329 71.0224 23.7022 70.4496 26.0536C69.8767 28.405 68.1682 31.1651 66.7841 31.0036C65.4001 30.8422 64.1783 25.327 64.9134 21.3508C65.6485 17.3746 67.0275 14.1352 64.7461 13.4842C62.4647 12.8333 60.5128 15.9164 60.1833 19.0802C59.8537 22.2439 59.8588 28.0013 59.8588 28.0013C59.8588 28.0013 58.1503 30.9229 56.1934 30.8422C54.2364 30.7614 53.4202 29.0559 54.9715 24.4339C56.5229 19.8118 56.8474 18.3788 54.1553 17.5109C52.4468 16.971 49.5114 17.5109 49.5114 17.5109C49.5114 17.5109 51.225 12.9998 49.0044 11.1328C46.7839 9.26586 42.8903 9.51311 41.3998 11.7838C39.9093 14.0544 39.9346 17.5412 41.8053 18.5958C42.7361 19.1437 43.7133 19.6097 44.7255 19.9884C44.7255 19.9884 38.7787 30.7766 35.7622 30.6908C32.7457 30.605 33.4808 23.1522 33.643 22.5013C33.8052 21.8504 35.8433 18.6109 35.9244 16.9861C35.9318 16.7034 35.8831 16.422 35.7811 16.158C35.679 15.8941 35.5256 15.6528 35.3297 15.4479C35.1338 15.2431 34.8992 15.0787 34.6393 14.9643C34.3795 14.8499 34.0995 14.7876 33.8154 14.781C33.7041 14.771 33.5921 14.771 33.4808 14.781C32.6645 15.0283 30.7938 17.1627 30.7938 17.1627C30.7938 17.1627 30.4643 14.1352 26.2817 14.0242C22.0991 13.9131 17.0344 21.0329 17.2778 27.0527C16.7505 28.4059 15.82 29.5662 14.6111 30.3779C13.4022 31.1897 11.9728 31.614 10.5147 31.594C8.72001 31.594 4.81121 30.2165 5.2168 24.4591C5.62238 18.7017 7.90885 17.3948 8.80113 17.5361C9.69341 17.6774 9.86071 18.8632 9.81508 19.3476C9.27261 19.5393 8.73015 20.7554 9.16108 21.593C9.36417 21.939 9.66407 22.2187 10.0242 22.3979C10.3843 22.5771 10.789 22.6481 11.189 22.6022C12.0704 22.4771 12.8723 22.0269 13.4358 21.3409C13.9992 20.6548 14.283 19.7831 14.2309 18.8985C14.2309 16.1182 12.2029 13.893 8.72508 13.9888C2.13438 14.1755 0 22.5215 0 25.6852C0 28.849 1.73893 35 10.2511 34.9798C14.4336 34.9798 17.5009 31.5738 17.5009 31.5738C17.5009 31.5738 18.8697 34.6569 22.9255 34.6569C26.9813 34.6569 29.0092 30.0348 29.0092 30.0348C29.0092 30.0348 30.079 34.3743 34.3883 34.6569C39.6558 35 44.8979 25.9779 47.5038 21.1944C48.8067 21.2751 49.8663 20.7907 50.2769 21.7646C50.6876 22.7384 48.5634 27.1132 49.0551 29.6312C49.5469 32.1491 51.2554 34.6771 54.9208 34.6771C58.5863 34.6771 60.9488 31.594 60.9488 31.594C60.9488 31.594 62.9767 35 65.8361 35C68.6954 35 71.2962 31.0894 71.2962 31.0894C71.2962 31.0894 74.257 34.6216 78.6575 34.6216C82.2064 34.6216 84.9035 31.2408 84.9035 31.2408C84.9035 31.2408 87.5905 33.1885 90.5259 33.1885C93.4613 33.1885 94.8453 31.9725 94.8453 31.9725C94.8453 31.9725 96.6654 34.7275 99.6768 34.7275C102.688 34.7275 105.842 31.483 106.09 30.1055C106.597 31.1601 108.027 34.7275 111.302 34.7275C114.78 34.7275 118.557 30.5091 118.557 30.5091C118.557 30.5091 121.705 34.8284 126.187 34.7275C130.668 34.6266 133.71 30.5091 133.71 30.5091C133.71 30.5091 137.431 34.672 141.502 34.672C145.573 34.672 146.745 32.4569 146.745 32.4569C146.745 32.4569 149.056 34.783 151.338 34.783C153.619 34.783 155.951 33.2693 157.928 30.0247C158.77 33.35 161.067 34.7275 162.998 34.7275C165.199 34.7275 170.349 32.6789 171.88 27.5926C172.575 25.1706 170.05 25.5742 169.234 26.6288ZM28.3958 18.8026C28.193 20.8715 26.8495 24.6408 28.0308 25.0041C27.6911 26.4169 25.5922 31.8059 23.9192 31.6546C22.2462 31.5032 21.2423 27.4866 23.3057 21.6435C25.3691 15.8003 28.6037 16.7338 28.3958 18.8026ZM46.3225 17.5058C46.3225 17.5058 43.7876 16.8549 43.6761 15.1544C43.5646 13.454 45.3593 12.7879 46.3377 14.0292C47.3162 15.2705 46.3377 17.5058 46.3377 17.5058H46.3225ZM105.33 18.8026C105.127 20.8715 103.809 24.6408 104.965 25.0041C104.625 26.4169 102.526 31.8059 100.853 31.6546C99.18 31.5032 98.1761 27.4866 100.24 21.6435C102.303 15.8003 105.563 16.7338 105.33 18.8026ZM123.307 5.13831C125.426 1.24791 125.842 5.86996 124.853 10.8957C123.865 15.9214 120.797 22.4105 120.797 22.4105C120.797 22.4105 121.162 9.02871 123.307 5.13831ZM138.516 5.13831C140.635 1.24791 141.051 5.86996 140.063 10.8957C139.074 15.9214 136.007 22.4105 136.007 22.4105C136.007 22.4105 136.372 9.02871 138.516 5.13831ZM157.067 18.8026C156.864 20.8715 155.546 24.6408 156.702 25.0041C156.362 26.4169 154.263 31.8059 152.59 31.6546C150.917 31.5032 149.913 27.4866 151.977 21.6435C154.04 15.8003 157.274 16.7338 157.046 18.8026H157.067Z" fill="#13233F"/>
</svg>
