<svg width="45" height="45" viewBox="0 0 45 45" fill="none" xmlns="http://www.w3.org/2000/svg">
<g clip-path="url(#clip0)">
<path d="M21.5 18.09H15.75C15.5087 18.09 15.2772 18.1859 15.1065 18.3565C14.9359 18.5272 14.84 18.7587 14.84 19C14.84 19.2413 14.9359 19.4728 15.1065 19.6435C15.2772 19.8141 15.5087 19.91 15.75 19.91H21.5C21.7413 19.91 21.9728 19.8141 22.1435 19.6435C22.3141 19.4728 22.41 19.2413 22.41 19C22.41 18.7587 22.3141 18.5272 22.1435 18.3565C21.9728 18.1859 21.7413 18.09 21.5 18.09ZM35.5 6.35H32L31.11 2C30.9851 1.44202 30.6769 0.941931 30.2347 0.579456C29.7925 0.21698 29.2416 0.0129876 28.67 0L9.33 0C8.75933 0.0164208 8.21021 0.221664 7.76868 0.583581C7.32714 0.945498 7.01811 1.44365 6.89 2L6 6.35H2.55C2.13535 6.35527 1.73963 6.52438 1.44922 6.82041C1.15882 7.11643 0.997327 7.51532 1 7.93V10.12C0.997327 10.5347 1.15882 10.9336 1.44922 11.2296C1.73963 11.5256 2.13535 11.6947 2.55 11.7H4.06L2.57 13.2C2.09691 13.6798 1.83117 14.3262 1.83 15V24.45C1.82732 25.1202 2.08963 25.7643 2.55979 26.242C3.02994 26.7196 3.66983 26.9921 4.34 27H21.81C21.7617 26.5617 21.7384 26.121 21.74 25.68C21.74 25.5 21.74 25.32 21.74 25.15H4.34C4.24807 25.1487 4.1573 25.1293 4.07287 25.0929C3.98844 25.0565 3.91201 25.0039 3.84794 24.9379C3.78386 24.872 3.7334 24.7941 3.69944 24.7087C3.66548 24.6232 3.64868 24.5319 3.65 24.44V15C3.64948 14.8137 3.72117 14.6345 3.85 14.5L6.44 11.9C6.57087 11.7718 6.74679 11.7 6.93 11.7H31.07C31.1609 11.6989 31.2511 11.716 31.3353 11.7504C31.4194 11.7847 31.4958 11.8356 31.56 11.9L32.7 13.05C33.2243 12.9862 33.7518 12.9528 34.28 12.95C34.6 12.95 34.91 12.95 35.23 12.95L34 11.7H35.5C35.9059 11.6819 36.2889 11.5072 36.5687 11.2125C36.8484 10.9179 37.003 10.5263 37 10.12V7.93C37.0027 7.51532 36.8412 7.11643 36.5508 6.82041C36.2604 6.52438 35.8647 6.35527 35.45 6.35H35.5ZM5.35 9.85H2.82V8.2H5.67L5.35 9.85ZM31 10C31 10 30.93 10 30.86 10H7.14C7.08 10 7 10 7 10C7 10 7 9.93 7 9.86L8.46 2.55C8.50042 2.40175 8.58541 2.2695 8.70345 2.17113C8.82149 2.07277 8.9669 2.01303 9.12 2H28.85C29.0027 2.01308 29.1481 2.07147 29.2675 2.16767C29.3868 2.26387 29.4748 2.39352 29.52 2.54L31 9.82C31 9.89 31 9.94 31 10ZM35.21 9.89H32.65L32.33 8.2H35.18L35.21 9.89ZM10.21 31.18H6.83V29H5V31.56C4.99735 31.7482 5.03212 31.935 5.1023 32.1096C5.17247 32.2842 5.27665 32.4431 5.40877 32.577C5.5409 32.711 5.69833 32.8174 5.87193 32.89C6.04553 32.9626 6.23183 33 6.42 33H10.59C10.7773 32.9987 10.9626 32.9603 11.135 32.8871C11.3074 32.8139 11.4637 32.7074 11.5947 32.5735C11.7258 32.4397 11.8291 32.2812 11.8986 32.1072C11.9682 31.9333 12.0026 31.7473 12 31.56V29H10.18L10.21 31.18ZM5 19C5 19.7595 5.22521 20.5019 5.64716 21.1334C6.0691 21.7649 6.66883 22.2571 7.3705 22.5477C8.07217 22.8383 8.84426 22.9144 9.58915 22.7662C10.334 22.618 11.0183 22.2523 11.5553 21.7153C12.0923 21.1783 12.458 20.494 12.6062 19.7491C12.7544 19.0043 12.6783 18.2322 12.3877 17.5305C12.0971 16.8288 11.6049 16.2291 10.9734 15.8072C10.3419 15.3852 9.59948 15.16 8.84 15.16C7.82238 15.1626 6.8472 15.5681 6.12763 16.2876C5.40806 17.0072 5.00264 17.9824 5 19ZM10.86 19C10.86 19.3956 10.7427 19.7822 10.5229 20.1111C10.3032 20.44 9.99082 20.6964 9.62537 20.8478C9.25992 20.9991 8.85778 21.0387 8.46982 20.9616C8.08186 20.8844 7.72549 20.6939 7.44579 20.4142C7.16608 20.1345 6.9756 19.7781 6.89843 19.3902C6.82126 19.0022 6.86087 18.6001 7.01224 18.2346C7.16362 17.8692 7.41996 17.5568 7.74886 17.3371C8.07776 17.1173 8.46444 17 8.86 17C9.38172 17.013 9.87768 17.2295 10.242 17.6032C10.6063 17.9768 10.8102 18.4781 10.81 19H10.86Z" fill="#00619E"/>
<path d="M40.66 17.68L33.15 25.2L30.69 22.74L29.4 24L31.86 26.46L33.15 27.75L34.44 26.46L40.53 20.37C41.3703 21.6913 41.8176 23.2242 41.82 24.79C41.8314 26.651 41.2222 28.4626 40.0888 29.9387C38.9554 31.4147 37.3624 32.4709 35.5616 32.9404C33.7608 33.4099 31.8549 33.2658 30.1452 32.531C28.4354 31.7961 27.0193 30.5125 26.1207 28.8828C25.222 27.2532 24.8921 25.3705 25.1831 23.5324C25.4741 21.6943 26.3693 20.0056 27.7274 18.7332C29.0854 17.4608 30.8288 16.6773 32.6819 16.5064C34.535 16.3356 36.3923 16.7873 37.96 17.79L39.26 16.5C37.1167 15.0148 34.4832 14.4134 31.9076 14.8208C29.3321 15.2282 27.0128 16.6132 25.4325 18.6874C23.8523 20.7616 23.1327 23.3653 23.4237 25.9566C23.7146 28.5479 24.9936 30.9272 26.9944 32.5994C28.9953 34.2715 31.5639 35.1077 34.1657 34.9339C36.7675 34.76 39.202 33.5896 40.9627 31.6661C42.7233 29.7427 43.6744 27.2143 43.618 24.6074C43.5617 22.0004 42.5021 19.5155 40.66 17.67V17.68Z" fill="#00AED9"/>
</g>
<defs>
<clipPath id="clip0">
<rect width="45" height="45" fill="white"/>
</clipPath>
</defs>
</svg>
