<svg width="267" height="204" viewBox="0 0 267 204" fill="none" xmlns="http://www.w3.org/2000/svg">
<g clip-path="url(#clip0)">
<path opacity="0.64" d="M132.868 204C204.273 204 262.157 200.704 262.157 196.639C262.157 192.574 204.273 189.278 132.868 189.278C61.4644 189.278 3.57986 192.574 3.57986 196.639C3.57986 200.704 61.4644 204 132.868 204Z" fill="#195154"/>
<path d="M237.099 56.7834L241.732 55.5215C241.732 55.5215 241.311 41.8514 257.735 41.8514C263.631 41.8514 267 47.1092 267 53.2081C267 59.5174 260.894 61.6205 256.893 62.4618C252.892 63.303 242.153 63.303 239.626 63.303C237.099 63.303 237.099 56.7834 237.099 56.7834Z" fill="#0A3F3F"/>
<path d="M29.9006 56.7834L25.2681 55.5215C25.2681 55.5215 25.6893 41.8514 9.26498 41.8514C3.36909 42.0617 0 47.5298 0 53.6288C0 59.938 6.10647 62.0411 10.1073 62.8824C14.108 63.7236 24.847 63.7236 27.3738 63.7236C29.9006 63.7236 29.9006 56.7834 29.9006 56.7834Z" fill="#0A3F3F"/>
<path d="M252.26 198.953H235.204C231.203 198.953 228.045 195.798 228.045 191.802V154.577H261.946C262.157 166.144 262.157 178.553 261.104 190.75C260.893 195.377 256.893 198.953 252.26 198.953Z" fill="#1A1A1A"/>
<path d="M15.3716 198.953H32.4276C36.4284 198.953 39.5869 195.798 39.5869 191.802V154.577H5.68545C5.26432 166.144 5.47488 178.553 6.31716 190.75C6.73829 195.377 10.5285 198.953 15.3716 198.953Z" fill="#1A1A1A"/>
<path d="M28.0054 51.9462C28.0054 51.9462 49.2728 5.67813 54.3264 2.52349C59.38 -0.631152 209.304 -1.47239 213.305 2.52349C217.306 6.51936 238.152 51.9462 238.152 51.9462C238.152 51.9462 241.732 58.2554 243.416 64.775C245.101 71.5049 256.682 85.5957 261.315 91.9049C265.736 98.2142 261.946 155.208 261.525 160.466C261.104 165.724 254.576 172.453 248.68 175.187C244.469 177.08 186.774 180.235 133.5 180.235C78.9628 180.235 23.3729 177.291 19.5827 175.398C12.0023 171.822 5.68524 164.882 5.47467 161.097C5.05353 154.787 1.68445 97.1627 4.84297 92.7462C8.00148 88.54 20.425 73.8183 21.6884 70.2431C23.1624 67.2987 25.4786 57.4142 28.0054 51.9462Z" fill="url(#paint0_linear)"/>
<path d="M204.672 100.738H59.5905V119.035H204.672V100.738Z" fill="#333333"/>
<path d="M233.52 53.6285C163.19 56.9935 99.1774 56.7832 32.638 53.6285C39.3762 37.8554 45.6932 22.0822 56.2216 6.51927C107.811 2.94401 158.979 2.94401 209.936 6.51927C220.254 22.0822 233.52 53.6285 233.52 53.6285Z" fill="url(#paint1_linear)"/>
<path d="M64.4339 106.416H200.04" stroke="#1A1A1A" stroke-width="1.2686" stroke-miterlimit="10" stroke-linecap="round" stroke-linejoin="round"/>
<path d="M64.4339 113.146H200.04" stroke="#1A1A1A" stroke-width="1.2686" stroke-miterlimit="10" stroke-linecap="round" stroke-linejoin="round"/>
<path d="M233.52 53.6289C233.52 68.5608 220.044 88.3299 214.148 94.0082" stroke="#1A1A1A" stroke-width="0.8457" stroke-miterlimit="10" stroke-linecap="round" stroke-linejoin="round"/>
<path d="M32.638 53.6289C32.638 71.2948 44.8509 85.3856 53.0631 94.0082" stroke="#1A1A1A" stroke-width="0.8457" stroke-miterlimit="10" stroke-linecap="round" stroke-linejoin="round"/>
<path d="M233.52 53.6285C163.19 56.9935 99.1774 56.7832 32.638 53.6285C39.3762 37.8554 45.6932 22.0822 56.2216 6.51927C107.811 2.94401 158.979 2.94401 209.936 6.51927C220.254 22.0822 233.52 53.6285 233.52 53.6285Z" stroke="#1A1A1A" stroke-width="0.8457" stroke-miterlimit="10" stroke-linecap="round" stroke-linejoin="round"/>
<path d="M245.522 121.769L209.515 123.451C205.303 123.661 201.724 120.297 201.724 116.09V101.158C201.724 96.9522 205.303 93.5873 209.515 93.7976L245.522 95.4801C251.839 95.6904 256.682 100.948 256.682 107.047V109.781C256.471 116.301 251.628 121.348 245.522 121.769Z" fill="#333333" stroke="#1A1A1A" stroke-width="0.6221" stroke-miterlimit="10"/>
<path d="M245.522 121.769L209.515 123.451C205.304 123.661 201.934 120.296 201.934 116.09V100.948C201.934 96.7418 205.514 93.3769 209.515 93.5872L245.522 95.2696C251.839 95.48 256.682 100.738 256.682 106.837V109.571C256.471 116.301 251.628 121.348 245.522 121.769Z" stroke="#1A1A1A" stroke-width="0.8457" stroke-miterlimit="10" stroke-linecap="round" stroke-linejoin="round"/>
<path opacity="0.75" d="M219.832 119.665C225.88 119.665 230.782 114.769 230.782 108.729C230.782 102.69 225.88 97.7933 219.832 97.7933C213.785 97.7933 208.883 102.69 208.883 108.729C208.883 114.769 213.785 119.665 219.832 119.665Z" fill="white" stroke="#1A1A1A" stroke-width="0.6221" stroke-miterlimit="10"/>
<path opacity="0.75" d="M219.832 116.721C224.252 116.721 227.834 113.143 227.834 108.729C227.834 104.316 224.252 100.738 219.832 100.738C215.413 100.738 211.831 104.316 211.831 108.729C211.831 113.143 215.413 116.721 219.832 116.721Z" fill="white" stroke="#1A1A1A" stroke-width="0.6221" stroke-miterlimit="10"/>
<path opacity="0.75" d="M241.521 117.142C246.056 117.142 249.733 113.469 249.733 108.94C249.733 104.41 246.056 100.738 241.521 100.738C236.986 100.738 233.309 104.41 233.309 108.94C233.309 113.469 236.986 117.142 241.521 117.142Z" fill="white" stroke="#1A1A1A" stroke-width="0.6221" stroke-miterlimit="10"/>
<path opacity="0.75" d="M241.521 115.249C245.01 115.249 247.838 112.424 247.838 108.939C247.838 105.455 245.01 102.63 241.521 102.63C238.032 102.63 235.204 105.455 235.204 108.939C235.204 112.424 238.032 115.249 241.521 115.249Z" fill="white" stroke="#1A1A1A" stroke-width="0.6221" stroke-miterlimit="10"/>
<path d="M21.6885 121.769L57.6956 123.451C61.9069 123.661 65.4866 120.297 65.4866 116.09V101.158C65.4866 96.9522 61.9069 93.5873 57.6956 93.7976L21.6885 95.4801C15.3714 95.9007 10.5284 101.158 10.5284 107.257V109.991C10.5284 116.301 15.3714 121.348 21.6885 121.769Z" fill="#333333" stroke="#1A1A1A" stroke-width="0.6221" stroke-miterlimit="10"/>
<path d="M21.6885 121.769L57.6956 123.451C61.9069 123.661 65.276 120.296 65.276 116.09V100.948C65.276 96.7418 61.6964 93.3769 57.6956 93.5872L21.6885 95.2696C15.3714 95.9006 10.5284 101.158 10.5284 107.257V109.991C10.5284 116.301 15.3714 121.348 21.6885 121.769Z" stroke="#1A1A1A" stroke-width="0.8457" stroke-miterlimit="10" stroke-linecap="round" stroke-linejoin="round"/>
<path opacity="0.75" d="M47.3775 119.665C53.4248 119.665 58.327 114.769 58.327 108.729C58.327 102.69 53.4248 97.7933 47.3775 97.7933C41.3302 97.7933 36.428 102.69 36.428 108.729C36.428 114.769 41.3302 119.665 47.3775 119.665Z" fill="white" stroke="#1A1A1A" stroke-width="0.6221" stroke-miterlimit="10"/>
<path opacity="0.75" d="M47.3774 116.721C51.7966 116.721 55.379 113.143 55.379 108.729C55.379 104.316 51.7966 100.738 47.3774 100.738C42.9583 100.738 39.3759 104.316 39.3759 108.729C39.3759 113.143 42.9583 116.721 47.3774 116.721Z" fill="white" stroke="#1A1A1A" stroke-width="0.6221" stroke-miterlimit="10"/>
<path opacity="0.75" d="M25.689 117.142C30.2245 117.142 33.9012 113.469 33.9012 108.94C33.9012 104.41 30.2245 100.738 25.689 100.738C21.1536 100.738 17.4769 104.41 17.4769 108.94C17.4769 113.469 21.1536 117.142 25.689 117.142Z" fill="white" stroke="#1A1A1A" stroke-width="0.6221" stroke-miterlimit="10"/>
<path opacity="0.75" d="M25.6889 115.249C29.1777 115.249 32.006 112.424 32.006 108.939C32.006 105.455 29.1777 102.63 25.6889 102.63C22.2001 102.63 19.3719 105.455 19.3719 108.939C19.3719 112.424 22.2001 115.249 25.6889 115.249Z" fill="white" stroke="#1A1A1A" stroke-width="0.6221" stroke-miterlimit="10"/>
<path d="M247.838 149.319V155.839C247.838 157.942 246.364 159.625 244.259 159.835C235.836 160.676 227.624 161.517 219.201 162.359C216.885 162.569 214.779 160.676 214.779 158.363V149.319C214.779 147.006 216.674 145.324 218.78 145.324H243.838C245.943 145.113 247.838 147.006 247.838 149.319Z" fill="#333333"/>
<path d="M209.515 149.319V159.414C209.515 161.517 207.83 163.41 205.725 163.41C157.505 166.775 109.495 166.775 61.275 163.41C59.1693 163.2 57.4848 161.517 57.4848 159.414V149.319C57.4848 147.006 59.3799 145.324 61.4856 145.324H205.303C207.62 145.113 209.515 147.006 209.515 149.319Z" fill="#333333"/>
<path d="M52.4316 149.319V158.363C52.4316 160.676 50.3259 162.569 48.0097 162.359C39.587 161.728 31.3748 160.886 22.9521 159.835C20.8464 159.625 19.3725 157.942 19.3725 155.839V149.319C19.3725 147.006 21.2676 145.324 23.3733 145.324H48.4308C50.5365 145.113 52.4316 147.006 52.4316 149.319Z" fill="#333333"/>
</g>
<defs>
<linearGradient id="paint0_linear" x1="133.541" y1="180.537" x2="133.541" y2="-0.000227686" gradientUnits="userSpaceOnUse">
<stop stop-color="#00A99D"/>
<stop offset="1" stop-color="#195154"/>
</linearGradient>
<linearGradient id="paint1_linear" x1="132.978" y1="56.0993" x2="132.978" y2="3.78945" gradientUnits="userSpaceOnUse">
<stop stop-color="#4D4D4D"/>
<stop offset="1" stop-color="#333333"/>
</linearGradient>
<clipPath id="clip0">
<rect width="267" height="204" fill="white"/>
</clipPath>
</defs>
</svg>
