<svg width="319" height="238" viewBox="0 0 319 238" fill="none" xmlns="http://www.w3.org/2000/svg">
<path opacity="0.64" d="M159.302 237.231C241.998 237.231 309.037 233.444 309.037 228.771C309.037 224.099 241.998 220.311 159.302 220.311C76.6054 220.311 9.56668 224.099 9.56668 228.771C9.56668 233.444 76.6054 237.231 159.302 237.231Z" fill="#195154"/>
<path d="M284.124 66.5853L289.488 65.2441C289.488 65.2441 287.941 53.6372 291.242 51.0064C294.543 48.3755 301.094 50.1294 308.057 52.5539C315.02 54.9785 319.456 55.7523 318.889 62.7164C318.321 69.6805 311.822 71.0217 307.18 72.0018C302.538 72.982 290.004 74.4264 287.116 74.4264C284.176 74.4264 284.124 66.5853 284.124 66.5853Z" fill="#EA3D07"/>
<path d="M35.7176 66.5853L30.3533 65.2441C30.3533 65.2441 31.9007 53.6372 28.5996 51.0064C25.2985 48.3755 18.7479 50.1294 11.7847 52.5539C4.82147 54.9785 0.38564 55.7523 0.953014 62.7164C1.52039 69.6805 8.0194 71.0217 12.6615 72.0018C17.3037 72.982 29.8375 74.4264 32.7259 74.4264C35.7176 74.4264 35.7176 66.5853 35.7176 66.5853Z" fill="#EA3D07"/>
<path d="M297.586 231.505H277.728C273.189 231.505 269.527 227.843 269.527 223.303V179.919H308.882C309.192 193.383 309.089 207.621 308.005 221.859C307.593 227.327 303.054 231.505 297.586 231.505Z" fill="#1A1A1A"/>
<path d="M23.0803 231.505H42.9384C47.4774 231.505 51.1395 227.843 51.1395 223.303V179.919H11.7844C11.4749 193.383 11.5781 207.621 12.6613 221.859C13.0739 227.327 17.6129 231.505 23.0803 231.505Z" fill="#1A1A1A"/>
<path d="M37.8839 60.9622C37.8839 60.9622 62.6421 7.31289 68.3158 3.70188C73.9895 0.0908653 247.812 -0.940853 252.454 3.70188C257.096 8.34461 281.339 60.9622 281.339 60.9622C281.339 60.9622 285.465 68.1842 287.528 75.9221C289.592 83.66 303.002 100.168 308.16 107.39C313.318 114.612 308.934 180.848 308.418 187.038C307.902 193.228 300.475 200.966 293.563 204.113C288.56 206.434 221.765 210.045 160.127 210.045C96.8392 210.097 32.5712 206.589 28.1354 204.526C19.3669 200.399 12.0426 192.197 11.8363 187.864C11.4753 180.59 7.40049 113.631 11.0626 108.679C14.7248 103.727 29.1154 86.6004 30.6112 82.6283C32.107 78.6562 34.9955 67.1525 37.8839 60.9622Z" fill="url(#paint0_linear)"/>
<path d="M289.746 173.368C289.746 180.28 285.053 186.316 278.347 188.07C246.265 196.375 203.196 199.47 159.457 199.367C117.368 199.212 74.6602 196.22 40.7725 187.915C33.964 186.264 29.1155 180.177 29.1155 173.161V165.681C29.1155 164.701 29.9408 163.928 30.9208 164.031C116.594 170.066 202.268 170.066 287.993 164.031C288.973 163.979 289.798 164.701 289.798 165.681V173.368H289.746Z" fill="#333333"/>
<path d="M242.5 117.449H74.4022V138.651H242.5V117.449Z" fill="#333333"/>
<path d="M275.819 62.8191C194.427 66.6881 120.204 66.5849 43.0931 62.8191C50.83 44.5577 58.2059 26.2963 70.4302 8.13808C130.108 3.95962 189.424 3.90804 248.482 8.13808C260.655 26.2963 275.819 62.8191 275.819 62.8191Z" fill="#333333"/>
<path d="M243.132 13.7977C236.162 10.3124 172.555 9.18867 151.643 10.6409C191.724 13.7977 229.731 16.1772 243.132 25.5607C256.533 34.9443 265.351 52.1361 265.351 52.1361C262.156 41.9707 250.103 17.283 243.132 13.7977Z" fill="white" fill-opacity="0.26"/>
<path d="M54.9263 57.7996C61.8969 61.2849 129.619 61.8657 150.53 60.4135C150.53 60.4135 103.285 59.5422 83.2444 52.136C63.2039 44.7297 69.3032 20.7682 69.3032 20.7682C64.7526 33.8381 47.9558 54.3143 54.9263 57.7996Z" fill="white" fill-opacity="0.26"/>
<path d="M80.0246 124.155H237.032" stroke="#EA3D07" stroke-width="6" stroke-miterlimit="10" stroke-linecap="round" stroke-linejoin="round"/>
<path d="M80.0244 131.893H237.032" stroke="#EA3D07" stroke-width="6" stroke-miterlimit="10" stroke-linecap="round" stroke-linejoin="round"/>
<path d="M238.837 117.449C238.837 117.449 276.903 92.0683 288.972 97.6396C293.563 99.7546 298.824 110.33 297.07 119.306C295.317 128.282 278.502 135.607 262.357 137.154C246.213 138.702 242.448 138.702 242.448 138.702L233.834 131.841L238.837 117.449Z" fill="#333333"/>
<path opacity="0.75" d="M278.347 129.365C286.181 129.365 292.532 123.014 292.532 115.179C292.532 107.344 286.181 100.993 278.347 100.993C270.513 100.993 264.163 107.344 264.163 115.179C264.163 123.014 270.513 129.365 278.347 129.365Z" fill="white"/>
<path opacity="0.75" d="M278.347 125.599C284.101 125.599 288.766 120.934 288.766 115.179C288.766 109.424 284.101 104.759 278.347 104.759C272.593 104.759 267.928 109.424 267.928 115.179C267.928 120.934 272.593 125.599 278.347 125.599Z" fill="white"/>
<path opacity="0.75" d="M248.895 135.556C254.08 135.556 258.283 131.352 258.283 126.167C258.283 120.982 254.08 116.779 248.895 116.779C243.711 116.779 239.508 120.982 239.508 126.167C239.508 131.352 243.711 135.556 248.895 135.556Z" fill="white"/>
<path opacity="0.75" d="M248.895 132.821C252.57 132.821 255.549 129.842 255.549 126.167C255.549 122.492 252.57 119.512 248.895 119.512C245.221 119.512 242.242 122.492 242.242 126.167C242.242 129.842 245.221 132.821 248.895 132.821Z" fill="white"/>
<path opacity="0.75" d="M258.18 118.532C260.63 118.532 262.615 116.546 262.615 114.096C262.615 111.646 260.63 109.659 258.18 109.659C255.73 109.659 253.744 111.646 253.744 114.096C253.744 116.546 255.73 118.532 258.18 118.532Z" fill="white"/>
<path d="M78.4252 117.449C78.4252 117.449 40.3596 92.0683 28.29 97.6396C23.6995 99.7546 18.4384 110.33 20.1921 119.306C21.9458 128.282 38.7607 135.607 54.905 137.154C71.0494 138.702 74.8147 138.702 74.8147 138.702L83.4284 131.841L78.4252 117.449Z" fill="#333333"/>
<path opacity="0.75" d="M38.9156 129.365C46.7494 129.365 53.0999 123.014 53.0999 115.179C53.0999 107.344 46.7494 100.993 38.9156 100.993C31.0818 100.993 24.7313 107.344 24.7313 115.179C24.7313 123.014 31.0818 129.365 38.9156 129.365Z" fill="white"/>
<path opacity="0.75" d="M38.9155 125.599C44.6698 125.599 49.3346 120.934 49.3346 115.179C49.3346 109.424 44.6698 104.759 38.9155 104.759C33.1613 104.759 28.4965 109.424 28.4965 115.179C28.4965 120.934 33.1613 125.599 38.9155 125.599Z" fill="white"/>
<path opacity="0.75" d="M68.3671 135.556C73.5516 135.556 77.7545 131.352 77.7545 126.167C77.7545 120.982 73.5516 116.779 68.3671 116.779C63.1825 116.779 58.9796 120.982 58.9796 126.167C58.9796 131.352 63.1825 135.556 68.3671 135.556Z" fill="white"/>
<path opacity="0.75" d="M68.3675 132.821C72.0423 132.821 75.0213 129.842 75.0213 126.167C75.0213 122.492 72.0423 119.512 68.3675 119.512C64.6928 119.512 61.7138 122.492 61.7138 126.167C61.7138 129.842 64.6928 132.821 68.3675 132.821Z" fill="white"/>
<path opacity="0.75" d="M59.0831 118.532C61.5329 118.532 63.5189 116.546 63.5189 114.096C63.5189 111.646 61.5329 109.659 59.0831 109.659C56.6332 109.659 54.6472 111.646 54.6472 114.096C54.6472 116.546 56.6332 118.532 59.0831 118.532Z" fill="white"/>
<path d="M275.82 62.8196C282.215 67.9266 284.175 85.569 280.926 97.1758" stroke="#EA3D07" stroke-width="4" stroke-miterlimit="10" stroke-linecap="round" stroke-linejoin="round"/>
<path d="M43.0419 62.8196C36.6461 67.9266 34.7892 85.9301 38.0387 97.5369" stroke="#EA3D07" stroke-width="4" stroke-miterlimit="10" stroke-linecap="round" stroke-linejoin="round"/>
<path d="M238.837 117.449C238.837 117.449 276.903 92.0683 288.972 97.6396C293.563 99.7546 298.824 110.33 297.07 119.306C295.317 128.282 278.502 135.607 262.357 137.154C246.213 138.702 242.448 138.702 242.448 138.702L233.834 131.841L238.837 117.449Z" stroke="#EA3D07" stroke-width="4" stroke-miterlimit="10"/>
<path d="M78.4252 117.449C78.4252 117.449 40.3596 92.0683 28.29 97.6396C23.6995 99.7546 18.4384 110.33 20.1921 119.306C21.9458 128.282 38.7607 135.607 54.905 137.154C71.0494 138.702 74.8147 138.702 74.8147 138.702L83.4284 131.841L78.4252 117.449Z" stroke="#EA3D07" stroke-width="4" stroke-miterlimit="10" stroke-linecap="round" stroke-linejoin="round"/>
<path d="M275.819 62.8191C194.427 66.6881 120.204 66.5849 43.0931 62.8191C50.83 44.5577 58.2059 26.2963 70.4302 8.13808C130.108 3.95962 189.424 3.90804 248.482 8.13808C260.655 26.2963 275.819 62.8191 275.819 62.8191Z" stroke="#EA3D07" stroke-width="4" stroke-miterlimit="10" stroke-linecap="round" stroke-linejoin="round"/>
<path d="M289.746 173.368C289.746 180.28 285.053 186.316 278.347 188.07C246.265 196.375 203.196 199.47 159.457 199.367C117.368 199.212 74.6602 196.22 40.7725 187.915C33.964 186.264 29.1155 180.177 29.1155 173.161V165.681C29.1155 164.701 29.9408 163.928 30.9208 164.031C116.594 170.066 202.268 170.066 287.993 164.031C288.973 163.979 289.798 164.701 289.798 165.681V173.368H289.746Z" stroke="#EA3D07" stroke-width="4" stroke-miterlimit="10" stroke-linecap="round" stroke-linejoin="round"/>
<path d="M29.1155 168.828C116.852 178.784 203.712 178.784 289.746 168.828" stroke="#EA3D07" stroke-width="4" stroke-miterlimit="10" stroke-linecap="round" stroke-linejoin="round"/>
<path d="M29.425 174.761C116.543 187.554 202.99 187.76 289.437 174.761" stroke="#EA3D07" stroke-width="4" stroke-miterlimit="10" stroke-linecap="round" stroke-linejoin="round"/>
<path d="M30.7144 179.919C117.832 195.705 201.855 196.53 288.25 179.919" stroke="#EA3D07" stroke-width="4" stroke-miterlimit="10" stroke-linecap="round" stroke-linejoin="round"/>
<defs>
<linearGradient id="paint0_linear" x1="160.083" y1="210.057" x2="160.083" y2="0.606736" gradientUnits="userSpaceOnUse">
<stop stop-color="#FF7227"/>
<stop offset="1" stop-color="#F15A24"/>
</linearGradient>
</defs>
</svg>
