<svg width="124" height="95" viewBox="0 0 124 95" fill="none" xmlns="http://www.w3.org/2000/svg">
<g clip-path="url(#clip0)">
<path opacity="0.64" d="M61.5617 94.4C94.1292 94.4 120.53 92.875 120.53 90.9938C120.53 89.1126 94.1292 87.5876 61.5617 87.5876C28.9941 87.5876 2.5929 89.1126 2.5929 90.9938C2.5929 92.875 28.9941 94.4 61.5617 94.4Z" fill="#333333"/>
<path d="M109.966 26.2762L112.079 25.6923C112.079 25.6923 111.503 21.0209 112.751 20.0477C114.096 18.9772 118.514 18.588 121.299 19.5612C124.084 20.5343 123.892 21.9941 123.7 24.7191C123.508 27.444 120.915 28.028 119.09 28.4172C117.265 28.8065 112.367 29.3904 111.215 29.3904C110.062 29.3904 109.966 26.2762 109.966 26.2762Z" fill="#999999"/>
<path d="M13.8295 26.2758L11.7166 25.6919C11.7166 25.6919 12.2929 21.0205 11.0443 20.0473C9.79582 19.0741 5.28193 18.5876 2.49676 19.5607C-0.288416 20.5339 -0.0963347 21.9937 0.0957461 24.7187C0.287827 27.4436 2.88092 28.0276 4.70568 28.4168C6.53045 28.8061 11.4285 29.39 12.581 29.39C13.7335 29.39 13.8295 26.2758 13.8295 26.2758Z" fill="#999999"/>
<path d="M116.017 92.0645H108.237C106.413 92.0645 104.972 90.6047 104.972 88.7556V71.53H120.435C120.531 76.8826 120.531 82.6245 120.05 88.269C119.954 90.41 118.13 92.0645 116.017 92.0645Z" fill="#1A1A1A"/>
<path d="M7.97121 92.0645H15.7505C17.5752 92.0645 19.0159 90.6047 19.0159 88.7556V71.53H3.55335C3.36127 76.8826 3.36127 82.6245 3.84147 88.269C3.93751 90.41 5.76228 92.0645 7.97121 92.0645Z" fill="#1A1A1A"/>
<path d="M13.7335 24.038C13.7335 24.038 23.4336 2.62773 25.7385 1.16794C28.0435 -0.291853 96.4243 -0.681132 98.249 1.16794C100.074 3.01701 109.582 24.038 109.582 24.038C109.582 24.038 111.214 26.9576 111.983 29.9745C112.751 32.9914 118.033 39.6092 120.146 42.5288C122.163 45.4484 120.434 71.822 120.242 74.255C120.05 76.688 117.073 79.8022 114.384 81.0673C112.463 81.9432 86.1479 83.403 61.8497 83.403C36.9753 83.403 11.6206 82.0405 9.89188 81.1646C6.43443 79.5102 3.55322 76.2987 3.45718 74.5469C3.2651 71.6273 1.72845 44.9618 3.16906 42.918C4.60966 40.9717 10.276 34.1593 10.8523 32.5049C11.4285 31.1424 12.581 26.5684 13.7335 24.038Z" fill="url(#paint0_linear)"/>
<path d="M107.373 24.8165C75.2955 26.3736 46.0992 26.2763 15.7505 24.8165C18.8238 17.5176 21.705 10.2186 26.507 3.01695C50.0369 1.36251 73.3747 1.36251 96.6165 3.01695C101.418 10.2186 107.373 24.8165 107.373 24.8165Z" fill="url(#paint1_linear)"/>
<path d="M104.648 22.9018C105.311 22.2315 100.69 14.43 98.2973 10.613C98.2973 10.613 100.782 16.1988 96.3645 19.5503C91.9467 22.9018 77.5886 24.2982 77.5886 24.2982C86.3323 24.1121 103.985 23.5721 104.648 22.9018Z" fill="white" fill-opacity="0.3"/>
<path d="M27.6116 5.02727C26.5071 5.921 20.6166 17.9677 18.2236 23.4604C21.0768 19.3642 24.4768 12.8473 32.5817 8.658C38.7432 5.47313 52.9222 4.37559 62.1261 3.63082C50.5292 3.07229 28.716 4.13354 27.6116 5.02727Z" fill="white" fill-opacity="0.3"/>
<path d="M107.373 24.8165C75.2955 26.3736 46.0992 26.2763 15.7505 24.8165C18.8238 17.5176 21.705 10.2186 26.507 3.01695C50.0369 1.36251 73.3747 1.36251 96.6165 3.01695C101.418 10.2186 107.373 24.8165 107.373 24.8165Z" stroke="#ED1C24" stroke-width="0.8457" stroke-miterlimit="10" stroke-linecap="round" stroke-linejoin="round"/>
<path d="M100.938 79.3156C74.9113 80.7754 48.7883 80.7754 22.7614 79.3156C21.897 79.2183 21.5129 78.1478 22.1851 77.5639L29.004 71.6274C30.1565 70.6542 31.5971 70.1676 33.1337 70.2649C52.0537 71.3354 71.2618 71.2381 90.6619 70.2649C92.1986 70.1676 93.6392 70.6542 94.7916 71.6274L101.611 77.5639C102.187 78.1478 101.899 79.2183 100.938 79.3156Z" fill="#333333"/>
<path d="M10.3721 75.5202V68.9998C10.3721 68.4159 10.8523 68.0266 11.3325 68.0266H19.688C20.6484 68.0266 21.0325 69.1944 20.2642 69.7784L11.9087 76.2988C11.3325 76.7854 10.3721 76.3961 10.3721 75.5202Z" fill="#333333"/>
<path d="M113.327 75.5202V68.9998C113.327 68.4159 112.847 68.0266 112.367 68.0266H104.011C103.051 68.0266 102.667 69.1944 103.435 69.7784L111.791 76.2988C112.367 76.7854 113.327 76.3961 113.327 75.5202Z" fill="#333333"/>
<path d="M117.553 44.9617V46.7134C117.553 50.1196 114.96 53.0392 111.599 53.4285L110.734 45.6429C113.039 45.4483 115.248 45.2536 117.553 44.9617Z" fill="#333333"/>
<path d="M14.8862 45.7402L14.1179 53.5258C10.8525 53.0392 8.35547 50.2169 8.35547 46.8107V44.9617C10.4684 45.2536 12.6773 45.4483 14.8862 45.7402Z" fill="#333333"/>
<path d="M97.2888 55.4722C77.7926 58.6837 72.7985 61.9926 62.9063 61.9926C53.3983 61.9926 45.523 58.8784 28.3318 55.7641L30.2526 47.0054C52.1498 48.5625 73.951 48.5625 95.8482 47.0054L97.2888 55.4722Z" fill="#333333"/>
<path d="M107.373 24.8167L95.8481 47.0055" stroke="#ED1C24" stroke-width="0.8454" stroke-miterlimit="10" stroke-linecap="round" stroke-linejoin="round"/>
<path d="M111.599 53.5259C106.124 54.1098 97.2887 55.5696 93.1589 56.2508L95.8481 47.1028C100.842 46.7135 105.836 46.3242 110.734 45.8376L111.599 53.5259Z" fill="white" stroke="#ED1C24" stroke-width="0.8454" stroke-miterlimit="10" stroke-linecap="round" stroke-linejoin="round"/>
<path d="M15.7505 24.8167L30.2526 47.0055" stroke="#ED1C24" stroke-width="0.8454" stroke-miterlimit="10" stroke-linecap="round" stroke-linejoin="round"/>
<path d="M30.2526 47.0055L32.1734 56.4455C28.0436 55.667 19.496 54.2072 14.1178 53.526C14.1178 53.526 14.1178 53.526 14.0217 53.526L14.8861 45.6431C20.0723 46.227 25.1624 46.7136 30.2526 47.0055Z" fill="white" stroke="#ED1C24" stroke-width="0.8454" stroke-miterlimit="10" stroke-linecap="round" stroke-linejoin="round"/>
<path d="M110.734 45.7404C105.74 46.227 100.746 46.7136 95.8482 47.0055C73.951 48.5626 52.1499 48.5626 30.2526 47.0055C25.1625 46.6163 19.9763 46.227 14.8862 45.6431C12.6773 45.4484 10.4683 45.1565 8.2594 44.8645V46.7136C8.2594 50.1198 10.7564 52.942 14.0218 53.4286C14.0218 53.4286 14.0218 53.4286 14.1179 53.4286C19.4961 54.1099 24.2021 54.8884 28.3318 55.667C45.427 58.7812 53.3023 61.8954 62.9064 61.8954C72.7985 61.8954 77.7926 58.5866 97.2888 55.375C101.323 54.6938 106.125 54.0125 111.599 53.4286C114.96 53.0394 117.553 50.1198 117.553 46.7136V44.9618C115.248 45.2538 113.039 45.4484 110.734 45.7404Z" stroke="#ED1C24" stroke-width="0.8454" stroke-miterlimit="10" stroke-linecap="round" stroke-linejoin="round"/>
</g>
<defs>
<linearGradient id="paint0_linear" x1="61.8574" y1="83.5428" x2="61.8574" y2="0.000103987" gradientUnits="userSpaceOnUse">
<stop stop-color="#FF7227"/>
<stop offset="1" stop-color="#EA4F1F"/>
</linearGradient>
<linearGradient id="paint1_linear" x1="61.6007" y1="25.9598" x2="61.6007" y2="1.75374" gradientUnits="userSpaceOnUse">
<stop stop-color="#4D4D4D"/>
<stop offset="1" stop-color="#333333"/>
</linearGradient>
<clipPath id="clip0">
<rect width="123.7" height="94.4" fill="white"/>
</clipPath>
</defs>
</svg>
