<svg width="268" height="202" viewBox="0 0 268 202" fill="none" xmlns="http://www.w3.org/2000/svg">
<g clip-path="url(#clip0)">
<path opacity="0.64" d="M133.361 202C203.955 202 261.183 198.753 261.183 194.748C261.183 190.742 203.955 187.495 133.361 187.495C62.7669 187.495 5.53906 190.742 5.53906 194.748C5.53906 198.753 62.7669 202 133.361 202Z" fill="#603813"/>
<path d="M238.175 56.3123L242.648 55.2458C242.648 55.2458 241.37 45.4337 244.14 43.0874C246.909 40.741 256.709 39.8878 262.674 42.0209C268.639 44.1539 268.213 47.1402 267.787 53.1127C267.361 59.0853 261.822 60.1518 257.774 61.005C253.726 61.8582 243.074 63.1381 240.731 63.1381C238.175 63.1381 238.175 56.3123 238.175 56.3123Z" fill="#FBB03B"/>
<path d="M29.825 56.3123L25.3512 55.2458C25.3512 55.2458 26.6294 45.4337 23.8599 43.0874C21.0905 40.741 11.2908 39.8878 5.32576 42.0209C-0.639264 44.1539 -0.213191 47.1402 0.212882 53.1127C0.638955 59.0853 6.17791 60.1518 10.2256 61.005C14.2733 61.8582 24.9251 63.1381 27.2685 63.1381C29.825 63.1381 29.825 56.3123 29.825 56.3123Z" fill="#FBB03B"/>
<path d="M251.383 197.094H234.553C230.718 197.094 227.523 193.894 227.523 190.055V153.153H261.183C261.396 164.671 261.396 176.83 260.33 188.988C259.904 193.681 256.07 197.094 251.383 197.094Z" fill="#1A1A1A"/>
<path d="M17.2561 197.094H34.086C37.9206 197.094 41.1162 193.894 41.1162 190.055V153.153H7.45641C7.24338 164.671 7.24338 176.83 8.30856 188.988C8.73463 193.681 12.5693 197.094 17.2561 197.094Z" fill="#1A1A1A"/>
<path d="M29.8248 51.6201C29.8248 51.6201 50.9155 5.75943 55.8153 2.77316C60.7151 -0.213111 208.989 -1.27964 212.823 2.77316C216.871 6.82596 237.535 51.6201 237.535 51.6201C237.535 51.6201 241.157 57.8059 242.861 64.4184C244.566 71.0308 256.07 85.109 260.543 91.2948C265.017 97.4807 261.183 154.007 260.756 159.339C260.33 164.672 253.939 171.284 248.187 173.844C243.927 175.764 187.046 178.963 134.426 178.963C80.5275 178.963 25.5641 175.977 21.7295 174.271C14.0601 170.644 7.66905 163.605 7.66905 159.979C7.45601 153.793 3.83439 96.6274 7.02994 92.3613C10.2255 88.0952 22.3686 73.5905 23.6468 70.1776C24.925 66.5514 27.2684 56.7394 29.8248 51.6201Z" fill="url(#paint0_linear)"/>
<path d="M232.636 53.1131C163.186 56.526 99.9141 56.3127 34.0858 53.1131C40.903 37.5418 47.081 21.9705 57.5198 6.39927C108.436 2.77308 159.138 2.77308 209.415 6.39927C219.854 21.9705 232.636 53.1131 232.636 53.1131Z" fill="url(#paint1_linear)"/>
<path d="M232.636 53.1131C163.186 56.526 99.9141 56.3127 34.0858 53.1131C40.903 37.5418 47.081 21.9705 57.5198 6.39927C108.436 2.77308 159.138 2.77308 209.415 6.39927C219.854 21.9705 232.636 53.1131 232.636 53.1131Z" stroke="#42210B" stroke-width="0.8261" stroke-miterlimit="10" stroke-linecap="round" stroke-linejoin="round"/>
<path d="M218.789 169.791C162.334 172.99 105.666 172.99 49.2115 169.791C47.2942 169.791 46.442 167.231 47.9333 165.951L62.8459 153.153C65.4023 151.02 68.5979 149.953 71.7934 150.167C112.696 152.513 154.239 152.3 196.42 150.167C199.615 149.953 202.811 151.02 205.367 153.153L220.28 165.951C221.558 167.231 220.706 169.577 218.789 169.791Z" fill="#603813"/>
<path d="M22.582 161.685V147.607C22.582 146.541 23.4341 145.474 24.7124 145.474H42.8205C44.7378 145.474 45.803 148.034 44.0987 149.314L25.9906 163.392C24.4993 164.458 22.582 163.392 22.582 161.685Z" fill="#603813"/>
<path d="M245.631 161.685V147.607C245.631 146.541 244.779 145.474 243.501 145.474H225.393C223.476 145.474 222.41 148.034 224.115 149.314L242.223 163.392C243.501 164.458 245.631 163.392 245.631 161.685Z" fill="#603813"/>
<path d="M254.579 96.2007V100.04C254.579 107.506 249.04 113.692 241.797 114.545L239.879 97.9071C244.992 97.4805 249.892 96.8406 254.579 96.2007Z" fill="#603813"/>
<path d="M32.3814 97.9071L30.4641 114.758C23.4339 113.692 17.895 107.506 17.895 100.253V96.2007C22.7948 96.8406 27.4816 97.2672 32.3814 97.9071Z" fill="#603813"/>
<path d="M210.906 118.811C168.725 125.637 157.86 132.889 136.343 132.889C115.679 132.889 98.6358 126.277 61.5674 119.664L65.6151 100.893C112.909 104.093 160.416 104.093 207.711 100.893L210.906 118.811Z" fill="#603813"/>
<path d="M232.636 53.1129L207.711 100.68" stroke="#42210B" stroke-width="0.8258" stroke-miterlimit="10" stroke-linecap="round" stroke-linejoin="round"/>
<path d="M241.796 114.545C229.866 115.824 210.693 119.024 201.958 120.304L207.71 100.68C218.575 99.8266 229.227 98.9734 240.092 97.9069L241.796 114.545Z" fill="white" stroke="#42210B" stroke-width="0.8258" stroke-miterlimit="10" stroke-linecap="round" stroke-linejoin="round"/>
<path d="M34.2991 53.1129L65.6154 100.68" stroke="#42210B" stroke-width="0.8258" stroke-miterlimit="10" stroke-linecap="round" stroke-linejoin="round"/>
<path d="M65.6149 100.68L69.6626 120.944C60.715 119.237 42.1809 116.251 30.4639 114.758C30.4639 114.758 30.4639 114.758 30.2508 114.758L32.1682 97.9069C43.4591 98.9734 54.537 100.04 65.6149 100.68Z" fill="white" stroke="#42210B" stroke-width="0.8258" stroke-miterlimit="10" stroke-linecap="round" stroke-linejoin="round"/>
<path d="M240.092 97.907C229.227 98.9735 218.576 99.8267 207.711 100.68C160.417 104.093 112.909 104.093 65.6153 100.68C54.5373 99.8267 43.4594 98.9735 32.3815 97.907C27.6947 97.4804 22.7949 96.8405 18.1081 96.4138V100.253C18.1081 107.506 23.434 113.692 30.6773 114.545C30.6773 114.545 30.6773 114.545 30.8903 114.545C42.6073 116.038 52.8331 117.744 61.7806 119.237C98.849 125.85 115.892 132.462 136.556 132.462C158.073 132.462 168.938 125.423 211.119 118.384C219.854 116.891 230.079 115.611 242.223 114.118C249.466 113.265 255.005 107.079 255.005 99.6134V95.7739C249.892 96.8405 244.992 97.4804 240.092 97.907Z" stroke="#42210B" stroke-width="0.8258" stroke-miterlimit="10" stroke-linecap="round" stroke-linejoin="round"/>
</g>
<defs>
<linearGradient id="paint0_linear" x1="134.031" y1="178.864" x2="134.031" y2="0.000192018" gradientUnits="userSpaceOnUse">
<stop stop-color="#FCEE21"/>
<stop offset="1" stop-color="#FBB03B"/>
</linearGradient>
<linearGradient id="paint1_linear" x1="133.475" y1="55.5798" x2="133.475" y2="3.75492" gradientUnits="userSpaceOnUse">
<stop stop-color="#4D4D4D"/>
<stop offset="1" stop-color="#333333"/>
</linearGradient>
<clipPath id="clip0">
<rect width="268" height="202" fill="white"/>
</clipPath>
</defs>
</svg>
