<svg width="124" height="95" viewBox="0 0 124 95" fill="none" xmlns="http://www.w3.org/2000/svg">
<g clip-path="url(#clip0)">
<path opacity="0.64" d="M61.6102 94.7397C93.7815 94.7397 119.861 93.2359 119.861 91.3809C119.861 89.5258 93.7815 88.022 61.6102 88.022C29.4389 88.022 3.35889 89.5258 3.35889 91.3809C3.35889 93.2359 29.4389 94.7397 61.6102 94.7397Z" fill="#195154"/>
<path d="M110.169 26.4756L112.28 25.9817C112.28 25.9817 111.704 21.3385 112.952 20.2518C114.2 19.1651 116.791 19.8567 119.478 20.8446C122.165 21.8325 123.892 22.1289 123.7 24.895C123.508 27.6611 120.917 28.2539 119.094 28.649C117.27 29.0442 112.376 29.6369 111.321 29.6369C110.169 29.5381 110.169 26.4756 110.169 26.4756Z" fill="#42210B"/>
<path d="M13.5323 26.4756L11.421 25.9817C11.421 25.9817 11.9968 21.3385 10.7493 20.2518C9.50171 19.1651 6.91063 19.8567 4.22359 20.8446C1.53654 21.8325 -0.190842 22.1289 0.00108941 24.895C0.193021 27.6611 2.7841 28.2539 4.60745 28.649C6.4308 29.0442 11.3251 29.6369 12.3807 29.6369C13.5323 29.5381 13.5323 26.4756 13.5323 26.4756Z" fill="#42210B"/>
<path d="M115.447 92.4678H107.674C105.946 92.4678 104.507 90.9859 104.507 89.2077V71.8206H119.861C119.957 77.254 119.957 82.8851 119.477 88.6149C119.286 90.7883 117.558 92.4678 115.447 92.4678Z" fill="#1A1A1A"/>
<path d="M8.63696 92.4678H16.3142C18.0416 92.4678 19.4811 90.9859 19.4811 89.2077V71.8206H4.12656C4.0306 77.254 4.0306 82.8851 4.51043 88.6149C4.70236 90.7883 6.52571 92.4678 8.63696 92.4678Z" fill="#1A1A1A"/>
<path d="M14.3951 24.2035C14.3951 24.2035 23.9917 2.66722 26.1989 1.28416C28.4062 -0.098909 96.0621 -0.592861 97.8854 1.28416C99.7088 3.16117 109.113 24.2035 109.113 24.2035C109.113 24.2035 110.745 27.0685 111.513 30.2297C112.28 33.2922 117.558 39.9112 119.574 42.8749C121.589 45.7398 119.862 72.3144 119.67 74.7842C119.478 77.254 116.599 80.3165 113.912 81.6007C111.992 82.4899 85.9857 83.9717 61.9942 83.9717C37.331 83.9717 12.3799 82.5887 10.6525 81.7983C7.1977 80.1189 4.41469 76.8588 4.31872 75.0806C4.12679 72.1169 2.49537 45.2459 3.93486 43.2701C5.37435 41.2943 10.9404 34.4777 11.5162 32.7983C12.092 31.1189 13.2435 26.6733 14.3951 24.2035Z" fill="url(#paint0_linear)"/>
<path d="M112.376 69.2519C112.376 72.018 110.553 74.4878 107.962 75.1793C95.4861 78.5382 78.6921 79.7237 61.7061 79.7237C45.2959 79.6249 28.6939 78.4394 15.5465 75.1793C12.8595 74.4878 11.0361 72.1168 11.0361 69.2519V66.2882C11.0361 65.893 11.324 65.5967 11.7079 65.5967C45.008 67.9676 78.4042 67.9676 111.704 65.5967C112.088 65.5967 112.376 65.893 112.376 66.2882V69.2519Z" fill="#603813"/>
<path d="M94.0469 46.8267H28.5981V55.3226H94.0469V46.8267Z" fill="#603813"/>
<path d="M107.002 24.8949C75.3332 26.4755 46.4475 26.3768 16.4102 24.8949C19.3851 17.5844 22.2641 10.2739 27.0624 2.96344C50.2861 1.284 73.4139 1.284 96.3497 2.96344C101.052 10.2739 107.002 24.8949 107.002 24.8949Z" fill="url(#paint1_linear)"/>
<path d="M104.355 22.8596C105.009 22.1869 100.45 14.3573 98.0883 10.5266C98.0883 10.5266 100.541 16.1325 96.1811 19.4961C91.8216 22.8596 77.6533 24.2611 77.6533 24.2611C86.2814 24.0742 103.701 23.5323 104.355 22.8596Z" fill="white" fill-opacity="0.3"/>
<path d="M28.3369 4.9208C27.247 5.81774 21.4344 17.9078 19.073 23.4203C21.8885 19.3093 25.2436 12.769 33.2413 8.5646C39.3214 5.36826 53.313 4.26677 62.3953 3.51932C50.9516 2.95877 29.4267 4.02385 28.3369 4.9208Z" fill="white" fill-opacity="0.3"/>
<path d="M30.8049 49.4939H91.8392" stroke="#42210B" stroke-width="1.2391" stroke-miterlimit="10" stroke-linecap="round" stroke-linejoin="round"/>
<path d="M30.8049 52.5564H91.8392" stroke="#42210B" stroke-width="1.2391" stroke-miterlimit="10" stroke-linecap="round" stroke-linejoin="round"/>
<path d="M92.6073 46.8266C92.6073 46.8266 107.386 36.6512 112.088 38.9234C113.912 39.8125 115.927 43.9617 115.255 47.6169C114.583 51.1734 108.058 54.1371 101.724 54.7298C95.4863 55.3226 93.9508 55.3226 93.9508 55.3226L90.592 52.5565L92.6073 46.8266Z" fill="#603813"/>
<path opacity="0.75" d="M107.962 51.6672C111.036 51.6672 113.528 49.1019 113.528 45.9374C113.528 42.7729 111.036 40.2075 107.962 40.2075C104.888 40.2075 102.396 42.7729 102.396 45.9374C102.396 49.1019 104.888 51.6672 107.962 51.6672Z" fill="white"/>
<path opacity="0.75" d="M107.962 50.0867C110.188 50.0867 111.992 48.2291 111.992 45.9375C111.992 43.646 110.188 41.7883 107.962 41.7883C105.736 41.7883 103.931 43.646 103.931 45.9375C103.931 48.2291 105.736 50.0867 107.962 50.0867Z" fill="white" stroke="#B3B3B3" stroke-width="0.6077" stroke-miterlimit="10"/>
<path opacity="0.75" d="M96.4458 54.0381C98.4598 54.0381 100.092 52.3574 100.092 50.2841C100.092 48.2108 98.4598 46.53 96.4458 46.53C94.4318 46.53 92.7991 48.2108 92.7991 50.2841C92.7991 52.3574 94.4318 54.0381 96.4458 54.0381Z" fill="white"/>
<path opacity="0.75" d="M96.4458 52.9516C97.8768 52.9516 99.0369 51.7574 99.0369 50.2843C99.0369 48.8112 97.8768 47.6169 96.4458 47.6169C95.0148 47.6169 93.8547 48.8112 93.8547 50.2843C93.8547 51.7574 95.0148 52.9516 96.4458 52.9516Z" fill="white" stroke="#B3B3B3" stroke-width="0.6077" stroke-miterlimit="10"/>
<path opacity="0.75" d="M100.093 47.2217C101.047 47.2217 101.82 46.4256 101.82 45.4435C101.82 44.4614 101.047 43.6653 100.093 43.6653C99.1386 43.6653 98.3652 44.4614 98.3652 45.4435C98.3652 46.4256 99.1386 47.2217 100.093 47.2217Z" fill="white"/>
<path d="M30.1334 46.8266C30.1334 46.8266 15.3547 36.6512 10.6524 38.9234C8.82903 39.8125 6.81374 43.9617 7.4855 47.6169C8.15727 51.2722 14.6829 54.1371 21.0167 54.7298C27.2545 55.3226 28.7899 55.3226 28.7899 55.3226L32.1487 52.5565L30.1334 46.8266Z" fill="#603813"/>
<path opacity="0.75" d="M14.7789 51.6672C17.8529 51.6672 20.3449 49.1019 20.3449 45.9374C20.3449 42.7729 17.8529 40.2075 14.7789 40.2075C11.7049 40.2075 9.21289 42.7729 9.21289 45.9374C9.21289 49.1019 11.7049 51.6672 14.7789 51.6672Z" fill="white"/>
<path opacity="0.75" d="M14.7789 50.0867C17.0049 50.0867 18.8094 48.2291 18.8094 45.9375C18.8094 43.646 17.0049 41.7883 14.7789 41.7883C12.5528 41.7883 10.7483 43.646 10.7483 45.9375C10.7483 48.2291 12.5528 50.0867 14.7789 50.0867Z" fill="white" stroke="#B3B3B3" stroke-width="0.6077" stroke-miterlimit="10"/>
<path opacity="0.75" d="M26.1987 54.0381C28.2127 54.0381 29.8454 52.3574 29.8454 50.2841C29.8454 48.2108 28.2127 46.53 26.1987 46.53C24.1847 46.53 22.552 48.2108 22.552 50.2841C22.552 52.3574 24.1847 54.0381 26.1987 54.0381Z" fill="white"/>
<path opacity="0.75" d="M26.1987 52.9516C27.6298 52.9516 28.7898 51.7574 28.7898 50.2843C28.7898 48.8112 27.6298 47.6169 26.1987 47.6169C24.7677 47.6169 23.6077 48.8112 23.6077 50.2843C23.6077 51.7574 24.7677 52.9516 26.1987 52.9516Z" fill="white" stroke="#B3B3B3" stroke-width="0.6077" stroke-miterlimit="10"/>
<path opacity="0.75" d="M22.648 47.2217C23.6021 47.2217 24.3754 46.4256 24.3754 45.4435C24.3754 44.4614 23.6021 43.6653 22.648 43.6653C21.694 43.6653 20.9207 44.4614 20.9207 45.4435C20.9207 46.4256 21.694 47.2217 22.648 47.2217Z" fill="white"/>
<path d="M107.002 24.895C109.497 26.9696 110.265 33.9837 109.017 38.6269" stroke="#42210B" stroke-width="0.8261" stroke-miterlimit="10" stroke-linecap="round" stroke-linejoin="round"/>
<path d="M16.4102 24.895C13.9151 26.9696 13.2434 34.1813 14.4909 38.8245" stroke="#42210B" stroke-width="0.8261" stroke-miterlimit="10" stroke-linecap="round" stroke-linejoin="round"/>
<path d="M92.6073 46.8266C92.6073 46.8266 107.386 36.6512 112.088 38.9234C113.912 39.8125 115.927 43.9617 115.255 47.6169C114.583 51.1734 108.058 54.1371 101.724 54.7298C95.4863 55.3226 93.9508 55.3226 93.9508 55.3226L90.592 52.5565L92.6073 46.8266Z" stroke="#42210B" stroke-width="0.8261" stroke-miterlimit="10"/>
<path d="M30.1334 46.8266C30.1334 46.8266 15.3547 36.6512 10.6524 38.9234C8.82903 39.8125 6.81374 43.9617 7.4855 47.6169C8.15727 51.2722 14.6829 54.1371 21.0167 54.7298C27.2545 55.3226 28.7899 55.3226 28.7899 55.3226L32.1487 52.5565L30.1334 46.8266Z" stroke="#42210B" stroke-width="0.8261" stroke-miterlimit="10" stroke-linecap="round" stroke-linejoin="round"/>
<path d="M107.002 24.8949C75.3332 26.4755 46.4475 26.3768 16.4102 24.8949C19.3851 17.5844 22.2641 10.2739 27.0624 2.96344C50.2861 1.284 73.4139 1.284 96.3497 2.96344C101.052 10.2739 107.002 24.8949 107.002 24.8949Z" stroke="#42210B" stroke-width="0.8261" stroke-miterlimit="10" stroke-linecap="round" stroke-linejoin="round"/>
<path d="M112.376 69.2519C112.376 72.018 110.553 74.4878 107.962 75.1793C95.4861 78.5382 78.6921 79.7237 61.7061 79.7237C45.2959 79.6249 28.6939 78.4394 15.5465 75.1793C12.8595 74.4878 11.0361 72.1168 11.0361 69.2519V66.2882C11.0361 65.893 11.324 65.5967 11.7079 65.5967C45.008 67.9676 78.4042 67.9676 111.704 65.5967C112.088 65.5967 112.376 65.893 112.376 66.2882V69.2519V69.2519Z" stroke="#42210B" stroke-width="0.8261" stroke-miterlimit="10" stroke-linecap="round" stroke-linejoin="round"/>
<path d="M10.9402 67.375C45.104 71.3266 78.884 71.3266 112.376 67.375" stroke="#42210B" stroke-width="0.8261" stroke-miterlimit="10" stroke-linecap="round" stroke-linejoin="round"/>
<path d="M11.1321 69.7458C45.008 74.8829 78.6921 74.9817 112.28 69.7458" stroke="#42210B" stroke-width="0.8261" stroke-miterlimit="10" stroke-linecap="round" stroke-linejoin="round"/>
<path d="M11.6118 71.8206C45.4878 78.1431 78.2121 78.4395 111.8 71.8206" stroke="#42210B" stroke-width="0.8261" stroke-miterlimit="10" stroke-linecap="round" stroke-linejoin="round"/>
</g>
<defs>
<linearGradient id="paint0_linear" x1="61.9268" y1="83.8975" x2="61.9268" y2="-0.000120057" gradientUnits="userSpaceOnUse">
<stop stop-color="#FCEE21"/>
<stop offset="1" stop-color="#FBB03B"/>
</linearGradient>
<linearGradient id="paint1_linear" x1="61.6728" y1="26.0698" x2="61.6728" y2="1.76086" gradientUnits="userSpaceOnUse">
<stop stop-color="#4D4D4D"/>
<stop offset="1" stop-color="#603813"/>
</linearGradient>
<clipPath id="clip0">
<rect width="123.7" height="94.74" fill="white"/>
</clipPath>
</defs>
</svg>
