<svg width="273" height="205" viewBox="0 0 273 205" fill="none" xmlns="http://www.w3.org/2000/svg">
<g clip-path="url(#clip0)">
<path opacity="0.64" d="M135.864 205C207.739 205 266.006 201.688 266.006 197.603C266.006 193.518 207.739 190.206 135.864 190.206C63.9894 190.206 5.72313 193.518 5.72313 197.603C5.72313 201.688 63.9894 205 135.864 205Z" fill="#333333"/>
<path d="M242.69 57.0614L247.353 55.7934C247.353 55.7934 246.081 45.6491 248.837 43.5357C251.804 41.2109 261.554 40.3656 267.701 42.479C273.848 44.5924 273.424 47.7625 273 53.68C272.576 59.5975 266.853 60.8656 262.826 61.7109C258.799 62.5563 247.989 63.8243 245.446 63.8243C242.902 63.8243 242.69 57.0614 242.69 57.0614Z" fill="#999999"/>
<path d="M30.5219 57.0615L25.8588 55.7935C25.8588 55.7935 27.1306 45.6492 24.3751 43.5358C21.6197 41.4224 11.6578 40.3657 5.51101 42.4791C-0.635729 44.5925 -0.211815 47.7626 0.212098 53.6801C0.636011 59.5976 6.35884 60.8657 10.386 61.711C14.4132 62.5564 25.223 63.8244 27.7664 63.8244C30.3099 63.8244 30.5219 57.0615 30.5219 57.0615Z" fill="#999999"/>
<path d="M256.044 199.928H238.875C234.848 199.928 231.669 196.758 231.669 192.742V155.335H265.794C266.006 166.959 266.006 179.428 264.946 191.685C264.734 196.335 260.707 199.928 256.044 199.928Z" fill="#1A1A1A"/>
<path d="M17.5925 199.928H34.761C38.7881 199.928 41.9675 196.758 41.9675 192.742V155.335H7.84249C7.41858 166.959 7.41858 179.428 8.47836 191.685C8.69032 196.335 12.7175 199.928 17.5925 199.928Z" fill="#1A1A1A"/>
<path d="M30.3097 52.2007C30.3097 52.2007 51.7173 5.70586 56.8043 2.53576C61.8912 -0.634346 212.804 -1.47971 216.831 2.53576C220.859 6.55122 241.842 52.2007 241.842 52.2007C241.842 52.2007 245.446 58.5409 247.141 65.0925C248.837 71.644 260.494 86.0152 265.158 92.3554C269.609 98.6956 265.793 155.969 265.369 161.252C264.946 166.536 258.375 173.299 252.44 176.046C248.201 177.948 190.125 181.118 136.5 181.118C81.6032 181.118 25.6467 178.16 21.8314 176.257C14.201 172.665 7.8423 165.69 7.63034 161.886C7.20643 155.546 3.81513 97.6389 6.99448 93.2007C10.1738 88.9739 22.6793 74.1801 23.951 70.5873C25.2227 67.6285 27.7662 57.6956 30.3097 52.2007Z" fill="url(#paint0_linear)"/>
<path d="M236.967 53.8913C166.174 57.2727 101.739 57.0614 34.7607 53.8913C41.5433 38.0408 47.902 22.1903 58.4998 6.55109C110.429 2.95831 161.935 2.95831 213.228 6.55109C223.826 22.1903 236.967 53.8913 236.967 53.8913Z" fill="url(#paint1_linear)"/>
<path d="M236.967 53.8913C166.174 57.2727 101.739 57.0614 34.7607 53.8913C41.5433 38.0408 47.902 22.1903 58.4998 6.55109C110.429 2.95831 161.935 2.95831 213.228 6.55109C223.826 22.1903 236.967 53.8913 236.967 53.8913Z" stroke="#ED1C24" stroke-width="0.8457" stroke-miterlimit="10" stroke-linecap="round" stroke-linejoin="round"/>
<path d="M222.766 172.242C165.326 175.412 107.674 175.412 50.2338 172.242C48.3262 172.03 47.4783 169.706 48.962 168.437L64.011 155.546C66.5544 153.432 69.7338 152.376 73.1251 152.587C114.881 154.912 157.272 154.7 200.087 152.587C203.478 152.376 206.658 153.432 209.201 155.546L224.25 168.437C225.522 169.706 224.886 172.03 222.766 172.242Z" fill="#333333"/>
<path d="M22.8916 164V149.84C22.8916 148.572 23.9514 147.727 25.0112 147.727H43.4514C45.571 147.727 46.4188 150.263 44.7232 151.531L26.2829 165.691C25.0112 166.747 22.8916 165.902 22.8916 164Z" fill="#333333"/>
<path d="M250.109 164V149.84C250.109 148.572 249.05 147.727 247.99 147.727H229.55C227.43 147.727 226.582 150.263 228.278 151.531L246.718 165.691C247.99 166.747 250.109 165.902 250.109 164Z" fill="#333333"/>
<path d="M259.435 97.6387V101.443C259.435 108.84 253.712 115.18 246.294 116.025L244.386 99.1181C249.473 98.6954 254.348 98.2727 259.435 97.6387Z" fill="#333333"/>
<path d="M32.8535 99.3294L31.1579 116.237C23.9514 115.18 18.4405 109.051 18.4405 101.654V97.6387C23.1035 98.2727 27.9785 98.6954 32.8535 99.3294Z" fill="#333333"/>
<path d="M214.712 120.464C171.685 127.438 160.663 134.623 138.831 134.623C117.848 134.623 100.467 127.86 62.5271 121.098L66.7663 102.077C115.092 105.458 163.206 105.458 211.533 102.077L214.712 120.464Z" fill="#333333"/>
<path d="M236.968 53.8917L211.533 102.077" stroke="#ED1C24" stroke-width="0.8454" stroke-miterlimit="10" stroke-linecap="round" stroke-linejoin="round"/>
<path d="M246.293 116.236C234.212 117.505 214.712 120.675 205.598 122.154L211.533 102.288C222.554 101.443 233.576 100.597 244.386 99.5406L246.293 116.236Z" fill="white" stroke="#ED1C24" stroke-width="0.8454" stroke-miterlimit="10" stroke-linecap="round" stroke-linejoin="round"/>
<path d="M34.7607 53.8917L66.7661 102.077" stroke="#ED1C24" stroke-width="0.8454" stroke-miterlimit="10" stroke-linecap="round" stroke-linejoin="round"/>
<path d="M66.7664 102.077L71.0055 122.577C61.8914 120.886 43.0273 117.716 31.1577 116.237C31.1577 116.237 31.1577 116.237 30.9457 116.237L32.8533 99.1184C44.299 100.386 55.5327 101.443 66.7664 102.077Z" fill="white" stroke="#ED1C24" stroke-width="0.8454" stroke-miterlimit="10" stroke-linecap="round" stroke-linejoin="round"/>
<path d="M244.386 99.3294C233.364 100.386 222.343 101.443 211.533 102.077C163.207 105.458 115.093 105.458 66.7664 102.077C55.5327 101.231 44.0871 100.386 32.8534 99.118C27.9784 98.6954 23.1034 98.0613 18.2284 97.4273V101.443C18.2284 108.84 23.7393 114.969 30.9458 116.025C30.9458 116.025 30.9458 116.025 31.1577 116.025C43.0273 117.505 53.4132 119.195 62.5273 120.886C100.256 127.649 117.636 134.412 138.832 134.412C160.663 134.412 171.685 127.226 214.712 120.252C223.614 118.773 234.212 117.293 246.294 116.025C253.712 115.18 259.435 108.84 259.435 101.443V97.6387C254.348 98.2727 249.473 98.6954 244.386 99.3294Z" stroke="#ED1C24" stroke-width="0.8454" stroke-miterlimit="10" stroke-linecap="round" stroke-linejoin="round"/>
</g>
<defs>
<linearGradient id="paint0_linear" x1="136.517" y1="181.422" x2="136.517" y2="-0.000328662" gradientUnits="userSpaceOnUse">
<stop stop-color="#FF7227"/>
<stop offset="1" stop-color="#F15A24"/>
</linearGradient>
<linearGradient id="paint1_linear" x1="135.95" y1="56.3741" x2="135.95" y2="3.8079" gradientUnits="userSpaceOnUse">
<stop stop-color="#4D4D4D"/>
<stop offset="1" stop-color="#333333"/>
</linearGradient>
<clipPath id="clip0">
<rect width="273" height="205" fill="white"/>
</clipPath>
</defs>
</svg>
